<svg viewBox="0 10 365.983 266.189" height="266.189" width="365.983" xmlns="http://www.w3.org/2000/svg">
    <g style="font-style:normal;font-weight:400;font-size:32px;line-height:1;font-family:'Daniel Black';font-variant-ligatures:none;text-align:center;text-anchor:middle" fill="#221e1f">
        <path style="font-style:normal;font-weight:400;font-size:32px;line-height:1;font-family:'Daniel Black';font-variant-ligatures:none;text-align:center;text-anchor:middle" d="M431.234-3.5q0 .719-.359 1.516-.25.437-2.203 1.218-2.078.829-3.172.829-.094 0-1.203-.157-.266-.047-.5-.047-.375 0-.688.11l-1.546-.313h-1.344q-.281 0-1.328-.375-.891-.312-1.141-.437-.078-.344-.453-.735 0-.171.078-.25l-.156-.156q.078-.344.078-.64 0-.438-.172-.735 1.078-.453 1.406-.453h1.172l1.61-.219h1.062l2.61-.328q.218-.187.234-.187-.063-.11-.39-.36L423-5.984q-4.61-1.985-5.281-4.485-.094-.39-.282-.64v-1.688q0-.125.282-.687.14-1.672 6.343-1.672h-.015q0 .015 2.672.344 1.828.656 2.437 1.015 1.281.75 1.828 1.922 0 .094-.218.438-.235.374-.235.468l.063.188-.844.562h-.234q.062 0 .062-.015 0-.079-1.984-.579-2-.265-2.407-.265l-2.218.297q.062.062.062.187.203.125.563.375 7.64 3.047 7.64 6.719z" transform="matrix(1.5 0 0 1.5 -589.604 249.647)"/>
        <path style="font-style:normal;font-weight:400;font-size:32px;line-height:1;font-family:'Daniel Black';font-variant-ligatures:none;text-align:center;text-anchor:middle" d="M439.078-17.281q-.078.14-.25.328.156.39.156.734-.156.25-.843.578-.063-.078-.313-.078-.265 0-.328.078-.672-.359-1.531-.484-.578-1.344-.578-1.64v-.032l.156-1.75q.156-.062.515-.422h.985q.484.282 1.062 1.125.407.125.594.64.266.75.375.923zM438.172-5.5v-.047q-.016 0-.047.234-.047.36-.078.797-.031.579-.031 1.407V-1.5l-.485 1.156-.343-.078q-.141.11-.329.234-.125-.046-.312-.156-.156.047-.328.156-.125-.093-1.313-.39-.562-.922-.984-3.172-.078-.39-.078-1 0-.203.015-.438l.094-2.796.39-1.86q.438-.39.563-.812l.844-.188q.187 0 .516.219.468.547 1.406 1.563.515.906.515 1.609z" transform="matrix(1.5 0 0 1.5 -588.104 249.647)"/>
        <path style="font-style:normal;font-weight:400;font-size:32px;line-height:1;font-family:'Daniel Black';font-variant-ligatures:none;text-align:center;text-anchor:middle" d="M469.484-6.266q-.03.375-.265 3.125-.438 1.36-.438 1.485v.015q-.156.157-.281.157-.031-.016-.078-.016l-.313.547q-.546-.063-1.64-.422-.203-.344-.813-.86-.234-.609-.234-1.406v-4.203l-.703-2.11q-.016.017-.047.017-.063 0-.125-.079-.281.141-.922.313-1.813.328-3.906 2.64-.11.188-2.875 4.079-.36.718-1.219 2.28h-.031q-.125 0-.813.22-.078-.063-.312-.063-.188.172-.578.375l-.422-.687q-.063-.11-.438-.329h-.218q-.047 0-.172.079-.11.093-.188.093.016 0 .016-.015 0-.063-.422-.516l-.078-2.484.453-5.078q0-.391-.156-1.157h-.016q-.047 0-.11-.062-.374.11-1.093.453-.328.313-1.031.922-1.828 1.265-3.328 3.562-1.329 1.454-2.141 3.329-.188.156-.188.328 0 .093.094.187.094.125.094.188 0 .046-.063.062h-1.89q-.703-1.047-1.532-1.047v-.047q0-.234-.187-.828 0-.172-.063-.625-.015-.062-.015-.11 0-.265.234-.39l-.281-.234q.016-.984.766-4.281l.593-2.625q.547-1.11.594-1.11v.016q0-.078-.031-.125 1.078-.531 1.078-.578.484 0 1.156 1.031.485.719.86 1.281h.03q.095 0 .485-.265 1.75-1.578 2.656-2.25 1.688-1.235 2.86-1.5.297-.047.5-.344.765-.281 1.015-.281.813 0 1.782 1.718.406.688 1.078 2.094l.422 2.36q.156-.157 1.062-.797.39-.282.828-.797 1.391-1.563 3.22-2.719 2.171-1.375 3.671-1.375 1.031 0 2.188 1.375 1.14 1.36 1.25 2.64.171.923.609 2.673z" transform="matrix(1.5 0 0 1.5 -586.604 249.647)"/>
        <path style="font-style:normal;font-weight:400;font-size:32px;line-height:1;font-family:'Daniel Black';font-variant-ligatures:none;text-align:center;text-anchor:middle" d="M494.578-8.406q0 .031-.14.422-.141.375-.204.593 0 .844-.89 1.954-.922 1.093-1.906 1.5-.813.234-.907.546l-3.36 1.704-3.233 1.046-.094-.093-5.5 1.375q-.11-.094-.266-.094-.156 0-.312.094l-1.5-.641-.454 3.156v.969l-.484 4.797.11 3.297-.25 2.765q-.032.016-.297.329-.204.25-.454.25-.187 0-.28-.266-.016.062-.094.11l-.204.202h-.046q-.235 0-.516-.28-1.266-.548-1.61-2.126-.28-2.328-.28-2.453V7.266l.484-6.282q.093-1.312 1.718-10.078.485-1.203 1.22-1.234l.64.094q.578.359.922 1.046.453.97.515 1.126.031 0 .031.718l-.312 3.25q0 .25.14.672 1.891-.844 4.516-1.828 2.719-.453 5.875-2.016.078-.062.453-.125.657-.453.985-.562.562-.484 1.718-1.61-.28-.703-1.218-1.25-1.516-.874-1.625-.953l-.313.079-.578-.313-.172.031q-.14.032-.187.032l-1.86-.454-3.78.079q-.22 0-.532.062-.656.14-.735.14-2.718.313-4.484 1.266-.437.063-1.703.735-1.578.828-1.578 1.53 0 .282.344.767-.094.14-.266.14-.125.094-.125.281 0 .047.016.094-.047 0-.204-.031-.14-.016-.156-.016l-.172.469q-.125-.031-.422-.156-.062 0-.218.156h-.438q-.11-.156-.36-.422l-.202.156q-.36-.53-.735-.734-.015-.484-.14-.812l-.11-.344v-1.406l.282-.407q-.016-.062-.016-.125 0-.64.766-1.187l1.234-.906q.11-.25.328-.485.328.11.422.11l5.281-2.5 3.297-.97q.594.22 1.266.22.047 0 .297-.079.25-.078.28-.078h1.657q.031-.015.172-.14.953.14 1.547.312.844.031 1.219.078.906.125 1.578.485.03 0 .218-.047t.235-.047q1.844 0 3.922 2.453.515.594 1.234 1.672 1 2.516 1 3.672z" transform="matrix(1.5 0 0 1.5 -585.104 249.647)"/>
        <path style="font-style:normal;font-weight:400;font-size:32px;line-height:1;font-family:'Daniel Black';font-variant-ligatures:none;text-align:center;text-anchor:middle" d="M502.89-24.125 500.079.641q-.515 0-1.125.25-.172 0-.344-.157l-.203.032q-.203.03-.375.03-.062-.062-.797-.655-.125 0-.375.28-.109-.312-.312-.734-.313-2.124-.313-2.593l1.313-11.297q.562-4.64 1.281-11.766.125-.515.485-1.812.296-1.094.796-1.594l.672.078q.453.422.844.563.094.203.766 1.047.5 1.515.5 1.859z" transform="matrix(1.5 0 0 1.5 -583.604 249.647)"/>
        <path style="font-style:normal;font-weight:400;font-size:32px;line-height:1;font-family:'Daniel Black';font-variant-ligatures:none;text-align:center;text-anchor:middle" d="M521.922-3.5q-.203.281-.547.938-.219 0-.328-.094-.172.062-.531.281.343.14.89.453-.203.063-.86.656-.655.235-1.984.532-.406.25-.562.703l-3.984.5q-4.282-.281-6.828-1.938-1.844-1.89-2.313-4.328-.172-.344-.172-.547 0-1.531 1.313-3.703 1.468-2.39 3.234-3.11.094-.046.516-.046.75-.64 2.64-1.11 1.672-.406 2.875-.406 1.047 0 2.407.766-.032.062-.032.375.297.062.703.172 0 .094.204.312 0 .578.437 1.5v.688q0 .125-.187.312.109.157.109.344 0 .344-.297.781-.031.219-.062.625-.36.485-.907 1.453l-3.39 2.454q.5.296 2.75.359l3.968.094q.266.453.938.984Zm-7.469-7 .016.016q-.031 0-.125-.266-1.219.484-1.625.703-1.157.61-1.563 1.297.11 0 .235.11 2.171-.829 3.062-1.86z" transform="matrix(1.5 0 0 1.5 -582.104 249.647)"/>
        <path style="font-style:normal;font-weight:400;font-size:32px;line-height:1;font-family:'Daniel Black';font-variant-ligatures:none;text-align:center;text-anchor:middle" d="M554.547-3.5q0 .719-.36 1.516-.25.437-2.203 1.218-2.078.829-3.172.829-.093 0-1.203-.157-.265-.047-.5-.047-.375 0-.687.11l-1.547-.313h-1.344q-.281 0-1.328-.375-.89-.312-1.14-.437-.079-.344-.454-.735 0-.171.078-.25l-.156-.156q.078-.344.078-.64 0-.438-.172-.735 1.079-.453 1.407-.453h1.172l1.609-.219h1.062l2.61-.328q.219-.187.234-.187-.062-.11-.39-.36l-1.829-.765q-4.609-1.985-5.28-4.485-.095-.39-.282-.64v-1.688q0-.125.281-.687.14-1.672 6.344-1.672h-.016q0 .015 2.672.344 1.828.656 2.438 1.015 1.281.75 1.828 1.922 0 .094-.219.438-.234.374-.234.468l.062.188-.844.562h-.234q.063 0 .063-.015 0-.079-1.985-.579-2-.265-2.406-.265l-2.219.297q.063.062.063.187.203.125.562.375 7.64 3.047 7.64 6.719z" transform="matrix(1.5 0 0 1.5 -580.604 249.647)"/>
        <path style="font-style:normal;font-weight:400;font-size:32px;line-height:1;font-family:'Daniel Black';font-variant-ligatures:none;text-align:center;text-anchor:middle" d="M562.39-17.281q-.077.14-.25.328.157.39.157.734-.156.25-.844.578-.062-.078-.312-.078-.266 0-.328.078-.672-.359-1.532-.484-.578-1.344-.578-1.64v-.032l.156-1.75q.157-.062.516-.422h.984q.485.282 1.063 1.125.406.125.594.64.265.75.375.923zM561.485-5.5v-.047q-.015 0-.047.234-.046.36-.078.797-.03.579-.03 1.407V-1.5l-.485 1.156-.344-.078q-.14.11-.328.234-.125-.046-.313-.156-.156.047-.328.156-.125-.093-1.312-.39-.563-.922-.985-3.172-.078-.39-.078-1 0-.203.016-.438l.094-2.796.39-1.86q.438-.39.563-.812l.843-.188q.188 0 .516.219.469.547 1.406 1.563.516.906.516 1.609z" transform="matrix(1.5 0 0 1.5 -579.104 249.647)"/>
        <path style="font-style:normal;font-weight:400;font-size:32px;line-height:1;font-family:'Daniel Black';font-variant-ligatures:none;text-align:center;text-anchor:middle" d="M590.703-11.703h-.531q-.125.219-.125.375 0 .047.015.094-.312.203-.484.203-.812.844-.984.844h-1.344l-1.406.343q-.203-.062-.469-.062l-2 .375q-.016 0-.219-.031-.187-.032-.265-.032-.235 0-1.235.156-.625.079-1.89.282-.578.094-1.532.64-.734 4.329-.734 4.704v1.218q0 .094-.25 1.094Q577-.469 577-.25q-.594.25-1.781.828-.032-.031-.578-.39-.532-.36-.641-.36-.625-.922-.781-2.234-.047-.328-.203-2.078L573.328-7v-.953l-.11-.14h-.343l-3.672.75h-.062q-.157 0-.313-.11l-2.922.578q-.25-.172-.922-.516-.343-.171-.609-.734-.156-.297-.39-.766-.157-1.343-.188-1.343v.015q0-.468.375-1.031.344-.516.672-.516h.047l5.703-.39 3.734-.875q.375-2.813 1.188-8.406.718-2.266 1.312-3.782.61-.703 1.266-1.11.203.063 1.812 1.11.297 1.766.313 1.766l-1.344 8.437v1.22h2.219q.062.015.218-.126h.454q.047 0 .265.031.235.032.297.032.031 0 .516-.11.484-.11.531-.11.172 0 .484.157.485-.156 2.344-.156 0 .016 2.25.36.563.312 1.516.687v.094q0 .203-.11.328.078.422.438.78h.078q.203-.015.328.126z" transform="matrix(1.5 0 0 1.5 -577.604 249.647)"/>
        <path style="font-style:normal;font-weight:400;font-size:32px;line-height:1;font-family:'Daniel Black';font-variant-ligatures:none;text-align:center;text-anchor:middle" d="M607.484-3.5q-.203.281-.547.938-.218 0-.328-.094-.172.062-.53.281.343.14.89.453-.203.063-.86.656-.656.235-1.984.532-.406.25-.563.703l-3.984.5q-4.281-.281-6.828-1.938-1.844-1.89-2.313-4.328-.171-.344-.171-.547 0-1.531 1.312-3.703 1.469-2.39 3.235-3.11.093-.046.515-.046.75-.64 2.64-1.11 1.673-.406 2.876-.406 1.047 0 2.406.766-.031.062-.031.375.297.062.703.172 0 .094.203.312 0 .578.438 1.5v.688q0 .125-.188.312.11.157.11.344 0 .344-.297.781-.032.219-.063.625-.36.485-.906 1.453l-3.39 2.454q.5.296 2.75.359l3.968.094q.266.453.937.984zm-7.468-7 .015.016q-.031 0-.125-.266-1.219.484-1.625.703-1.156.61-1.562 1.297.11 0 .234.11 2.172-.829 3.063-1.86z" transform="matrix(1.5 0 0 1.5 -576.104 249.647)"/>
    </g>
    <g style="font-style:normal;font-weight:400;font-size:72px;line-height:1;font-family:Pacifico;font-variant-ligatures:none;text-align:center;text-anchor:middle">
        <path style="font-style:normal;font-weight:400;font-size:72px;line-height:1;font-family:Pacifico;font-variant-ligatures:none;text-align:center;text-anchor:middle" d="M498.051 1.944q-3.744 0-5.76-1.728-1.944-1.728-1.944-3.888 0-1.872 1.368-3.24t4.032-1.368q.936 0 2.16.216l1.944.216q-.072-1.872-.864-3.528-.72-1.656-1.872-3.168-1.152-1.584-2.16-2.736-2.232 4.248-4.464 7.056-2.16 2.808-4.752 5.328-1.296 1.296-2.736 1.296-1.152 0-1.872-.792-.72-.864-.72-2.088 0-1.44 1.008-2.664l.936-1.152q3.96-4.896 5.976-8.064 1.224-2.088 2.88-5.544 1.656-3.528 3.24-7.272 1.368-3.168 5.688-3.168 2.016 0 2.808.36.792.36.792 1.152 0 .432-.288 1.368-.288.936-.792 1.872-1.296 2.592-1.296 4.392 0 1.08.72 2.376.792 1.296 2.376 3.24 2.304 3.024 3.456 5.184 1.224 2.088 1.224 4.608 0 .72-.144 2.016 3.528-1.368 8.28-7.272.864-1.008 1.944-1.008.936 0 1.44.864.576.864.576 2.376 0 2.736-1.368 4.464-3.6 4.464-6.912 6.12-3.24 1.584-8.064 1.728-2.88 2.448-6.84 2.448z" fill="#0b74ce" transform="matrix(5.11 0 0 5.11 -2454.12 190.247)"/>
        <path style="font-style:normal;font-weight:400;font-size:72px;line-height:1;font-family:Pacifico;font-variant-ligatures:none;text-align:center;text-anchor:middle" d="M528.848 1.944q-3.744 0-5.76-1.728-1.944-1.728-1.944-3.888 0-1.872 1.368-3.24t4.032-1.368q.936 0 2.16.216l1.944.216q-.072-1.872-.864-3.528-.72-1.656-1.872-3.168-1.152-1.584-2.16-2.736-2.232 4.248-4.464 7.056-2.16 2.808-4.752 5.328Q515.24-3.6 513.8-3.6q-1.152 0-1.872-.792-.72-.864-.72-2.088 0-1.44 1.008-2.664l.936-1.152q3.96-4.896 5.976-8.064 1.224-2.088 2.88-5.544 1.656-3.528 3.24-7.272 1.368-3.168 5.688-3.168 2.016 0 2.808.36.792.36.792 1.152 0 .432-.288 1.368-.288.936-.792 1.872Q532.16-27 532.16-25.2q0 1.08.72 2.376.792 1.296 2.376 3.24 2.304 3.024 3.456 5.184 1.224 2.088 1.224 4.608 0 .72-.144 2.016 3.528-1.368 8.28-7.272.864-1.008 1.944-1.008.936 0 1.44.864.576.864.576 2.376 0 2.736-1.368 4.464-3.6 4.464-6.912 6.12-3.24 1.584-8.064 1.728-2.88 2.448-6.84 2.448z" fill="#0093e9" transform="matrix(5.11 0 0 5.11 -2454.12 190.247)"/>
    </g>
</svg>
